<?xml version="1.0" encoding="UTF-8"?>
<svg xmlns="http://www.w3.org/2000/svg" xmlns:xlink="http://www.w3.org/1999/xlink" width="256px" height="256px" viewBox="0 0 256 256" version="1.1">
<g id="surface1">
<path style=" stroke:none;fill-rule:nonzero;fill:rgb(99.607843%,99.607843%,99.607843%);fill-opacity:1;" d="M 256.5 99.5 C 256.5 151.320312 256.492188 202.890625 256.542969 254.460938 C 256.542969 256.089844 256.328125 256.554688 254.539062 256.550781 C 170.558594 256.492188 86.578125 256.492188 2.601562 256.554688 C 0.730469 256.554688 0.457031 256.089844 0.457031 254.351562 C 0.507812 170.457031 0.503906 86.558594 0.460938 2.664062 C 0.460938 0.964844 0.679688 0.441406 2.585938 0.445312 C 86.566406 0.507812 170.546875 0.507812 254.523438 0.449219 C 256.285156 0.449219 256.546875 0.863281 256.542969 2.523438 C 256.484375 34.765625 256.5 67.007812 256.5 99.5 Z M 256.5 99.5 "/>
<path style=" stroke:none;fill-rule:nonzero;fill:rgb(41.568627%,76.078431%,91.764706%);fill-opacity:1;" d="M 90.433594 227.960938 C 85.308594 230.726562 79.980469 231.667969 74.386719 231.605469 C 67.898438 231.53125 61.402344 231.539062 54.910156 231.628906 C 52.820312 231.65625 51.914062 231.019531 51.921875 228.792969 C 51.988281 213.976562 51.980469 199.160156 51.933594 184.34375 C 51.929688 182.5 52.546875 181.910156 54.40625 181.933594 C 62.230469 182.03125 70.070312 181.667969 77.875 182.058594 C 91.9375 182.769531 103.023438 193.09375 102.121094 208.121094 C 101.601562 216.742188 98.046875 223.398438 90.433594 227.960938 Z M 90.433594 227.960938 "/>
<path style=" stroke:none;fill-rule:nonzero;fill:rgb(41.960784%,76.470588%,91.764706%);fill-opacity:1;" d="M 112.695312 181.988281 C 115.425781 181.976562 117.921875 181.996094 120.421875 181.964844 C 122.085938 181.941406 122.90625 182.71875 122.875 184.375 C 122.71875 192.863281 123.050781 201.351562 122.695312 209.84375 C 122.554688 213.140625 122.730469 216.527344 125.011719 219.316406 C 128.304688 223.339844 132.632812 223.570312 137.273438 222.710938 C 141.714844 221.882812 143.898438 218.894531 144.828125 214.753906 C 145.230469 212.972656 145.453125 211.164062 145.445312 209.316406 C 145.402344 201.070312 145.480469 192.824219 145.378906 184.582031 C 145.355469 182.492188 146.023438 181.773438 148.09375 181.9375 C 150.164062 182.097656 152.257812 182 154.339844 181.949219 C 155.777344 181.917969 156.492188 182.449219 156.488281 183.976562 C 156.449219 193.386719 157.039062 202.84375 156.308594 212.199219 C 155.070312 228.015625 144.265625 234.050781 129.695312 232.183594 C 119.238281 230.84375 113.761719 225.457031 111.832031 216.058594 C 111.351562 213.714844 111.125 211.285156 111.09375 208.890625 C 110.996094 200.8125 111.03125 192.734375 111.035156 184.65625 C 111.035156 183.539062 110.699219 182.1875 112.695312 181.988281 Z M 112.695312 181.988281 "/>
<path style=" stroke:none;fill-rule:nonzero;fill:rgb(41.568627%,76.470588%,92.156863%);fill-opacity:1;" d="M 178.03125 194.585938 C 178.421875 191.730469 177.300781 190.773438 174.6875 190.90625 C 171.28125 191.082031 167.859375 190.9375 164.449219 191.011719 C 162.480469 191.054688 161.503906 190.308594 161.566406 188.230469 C 161.78125 180.796875 160.390625 182.035156 167.660156 181.988281 C 179.234375 181.917969 190.8125 182.03125 202.386719 181.914062 C 204.839844 181.890625 205.585938 182.699219 205.503906 185.0625 C 205.277344 191.863281 206.246094 191.039062 199.460938 190.9375 C 197.046875 190.902344 194.628906 191.019531 192.21875 190.902344 C 189.820312 190.785156 189.007812 191.804688 189.027344 194.160156 C 189.105469 205.652344 189.003906 217.144531 189.125 228.636719 C 189.148438 230.972656 188.402344 231.773438 186.148438 231.609375 C 184.242188 231.46875 182.320312 231.511719 180.40625 231.574219 C 178.597656 231.632812 177.9375 230.894531 177.949219 229.050781 C 178.027344 217.640625 178.015625 206.230469 178.03125 194.585938 Z M 178.03125 194.585938 "/>
<path style=" stroke:none;fill-rule:nonzero;fill:rgb(9.803922%,17.254902%,32.941176%);fill-opacity:1;" d="M 151.40625 56.234375 C 159.113281 57.648438 166.492188 57.332031 173.703125 54.585938 C 177.664062 53.078125 179.261719 54.488281 178.765625 58.761719 C 178.410156 61.808594 178.402344 64.90625 177.464844 67.871094 C 176.996094 69.351562 176.710938 71.335938 174.570312 70.851562 C 172.53125 70.386719 172.429688 68.644531 172.859375 66.808594 C 173.28125 65.03125 173.511719 63.210938 173.84375 61.410156 C 174.089844 60.101562 173.753906 59.410156 172.296875 59.929688 C 164.179688 62.8125 155.839844 61.722656 147.550781 61.273438 C 140.945312 60.917969 135.046875 63.097656 129.582031 66.402344 C 126.738281 68.121094 124.59375 68.207031 121.996094 66.089844 C 115.273438 60.617188 107.257812 61.035156 99.328125 61.652344 C 93.359375 62.121094 87.507812 61.988281 81.832031 59.941406 C 79.910156 59.25 79.507812 59.757812 79.863281 61.6875 C 80.46875 64.972656 80.964844 68.257812 82.828125 71.136719 C 83.632812 72.378906 83.496094 73.507812 82.246094 74.394531 C 81.019531 75.265625 80.035156 74.683594 79.164062 73.792969 C 78.398438 73.011719 77.835938 72.085938 77.46875 71.054688 C 75.8125 66.394531 74.792969 61.617188 74.859375 56.648438 C 74.894531 53.96875 75.972656 53.226562 78.515625 54.03125 C 79.703125 54.40625 80.8125 55.035156 82.292969 55.03125 C 83.839844 54.484375 85.011719 55.398438 86.480469 55.542969 C 88.316406 56.226562 90.023438 56.378906 91.96875 56.304688 C 93.433594 56.253906 94.691406 56.277344 96.15625 56.292969 C 97.640625 56.269531 98.867188 55.894531 100.347656 55.8125 C 101.828125 55.738281 103.097656 55.796875 104.570312 55.789062 C 111.742188 55.300781 118.199219 56.726562 123.964844 60.816406 C 125.328125 61.785156 126.753906 61.792969 128.195312 60.972656 C 133.933594 57.710938 139.992188 55.550781 146.890625 55.519531 C 148.484375 55.640625 149.886719 55.671875 151.40625 56.234375 Z M 151.40625 56.234375 "/>
<path style=" stroke:none;fill-rule:nonzero;fill:rgb(10.980392%,18.431373%,32.941176%);fill-opacity:1;" d="M 78.359375 127.429688 C 77.640625 123.960938 78.238281 120.496094 78.640625 117.035156 C 78.828125 115.433594 79.636719 113.597656 81.40625 113.722656 C 83.558594 113.871094 83.667969 115.960938 83.386719 117.636719 C 82.085938 125.375 82.980469 132.886719 85.503906 140.246094 C 85.898438 141.394531 86.042969 143.222656 87.253906 143.328125 C 88.703125 143.449219 88.542969 141.488281 89.078125 140.460938 C 94.683594 129.683594 103.460938 122.785156 114.9375 119.160156 C 116.597656 118.636719 118.320312 118.300781 120.21875 117.8125 C 122.644531 117.671875 123.414062 118.972656 123.402344 121.15625 C 122.296875 123.019531 120.441406 122.722656 118.898438 123.101562 C 114.535156 124.183594 110.316406 125.554688 106.527344 128.417969 C 106.292969 128.621094 106.195312 128.695312 105.9375 128.859375 C 101.789062 130.703125 99.039062 133.773438 96.695312 137.53125 C 93.964844 140.664062 92.4375 144.238281 91.3125 147.976562 C 90.496094 150.671875 91.660156 152.796875 93.980469 154.535156 C 95.695312 156.082031 97.320312 157.46875 98.589844 159.449219 C 100.648438 163.003906 104.226562 164.304688 107.390625 165.949219 C 115.796875 170.3125 124.882812 171.59375 134.25 170.785156 C 138.734375 170.394531 143.023438 169.015625 147.222656 167.402344 C 148.769531 166.808594 150.296875 166.070312 152.21875 166.65625 C 153.523438 168.4375 152.515625 169.59375 151.214844 170.785156 C 140.257812 175.714844 129.117188 177.113281 117.558594 174.464844 C 113.667969 173.574219 109.949219 172.164062 106.160156 170.4375 C 105.238281 170.246094 104.863281 169.660156 104.699219 169.039062 C 104.046875 166.515625 102.414062 166.140625 100.050781 166.835938 C 99.039062 166.21875 98.195312 165.640625 97.191406 165.023438 C 94.28125 161.777344 91.042969 159.039062 88.425781 155.6875 C 84.390625 150.511719 81.59375 144.78125 79.925781 138.269531 C 81.246094 137.8125 81.484375 138.972656 81.617188 139.707031 C 82.300781 143.542969 84.933594 145.804688 87.914062 147.867188 C 88.527344 146.949219 88.195312 146.285156 87.300781 145.894531 C 85.855469 145.261719 85.285156 143.996094 84.75 142.667969 C 81.691406 135.113281 80.59375 127.3125 81.683594 119.214844 C 81.824219 118.175781 82.097656 117.085938 81.308594 115.941406 C 80.015625 116.660156 79.890625 117.9375 79.785156 119.097656 C 79.59375 121.164062 79.109375 123.203125 79.140625 125.292969 C 79.152344 126.035156 79.125 126.804688 78.359375 127.429688 Z M 78.359375 127.429688 "/>
<path style=" stroke:none;fill-rule:nonzero;fill:rgb(10.196078%,17.254902%,32.941176%);fill-opacity:1;" d="M 83.21875 106.621094 C 83.109375 106.484375 82.945312 106.34375 82.945312 106.238281 C 82.4375 104.886719 83.234375 104.667969 84.15625 104.691406 C 85.304688 104.714844 86.453125 104.84375 87.738281 105.320312 C 90.648438 107.105469 93.003906 109.335938 96.183594 110.410156 C 105.46875 113.546875 115.488281 109.152344 119.132812 100.171875 C 122.824219 91.0625 118.695312 80.660156 109.796875 76.648438 C 101.488281 72.898438 91.179688 76.167969 86.492188 84.035156 C 86.066406 84.75 85.75 85.53125 84.933594 86.175781 C 83.21875 86.125 81.667969 86.039062 80.054688 86.609375 C 80.066406 84.042969 81.671875 82.28125 82.953125 80.167969 C 87.148438 74.230469 92.761719 70.867188 99.734375 69.792969 C 105.160156 68.957031 110.066406 70.515625 114.617188 73.375 C 115.523438 73.949219 116.421875 74.558594 117.421875 75.347656 C 119.472656 76.613281 120.703125 78.378906 121.972656 80.308594 C 122.488281 80.984375 122.785156 81.609375 123.179688 82.371094 C 123.371094 82.671875 123.484375 82.824219 123.597656 83.117188 C 125.378906 86.984375 126.160156 90.90625 125.839844 95.230469 C 125.785156 95.671875 125.796875 95.910156 125.722656 96.3125 C 125.140625 99.792969 124.019531 102.882812 122.125 105.871094 C 121.984375 106.105469 121.960938 106.203125 121.816406 106.386719 C 121.578125 106.757812 121.433594 107.027344 121.101562 107.351562 C 119.183594 110.460938 116.40625 112.339844 113.265625 114.015625 C 112.832031 114.214844 112.582031 114.410156 112.125 114.554688 C 111.679688 114.757812 111.382812 114.925781 110.914062 115.09375 C 109.957031 115.40625 109.21875 115.839844 108.1875 115.972656 C 107.847656 116.050781 107.695312 116.121094 107.414062 116.152344 C 106.671875 116.328125 106.058594 116.554688 105.191406 116.507812 C 103.496094 116.984375 101.972656 116.835938 100.230469 116.625 C 96.390625 116.519531 93.261719 115.003906 90.046875 113.152344 C 89.878906 113.050781 89.652344 113.027344 89.585938 112.933594 C 89.199219 112.648438 88.90625 112.414062 88.484375 112.125 C 88.359375 112.058594 88.140625 112.015625 88.082031 111.921875 C 86.214844 110.359375 84.59375 108.722656 83.21875 106.621094 Z M 83.21875 106.621094 "/>
<path style=" stroke:none;fill-rule:nonzero;fill:rgb(3.529412%,12.156863%,30.196078%);fill-opacity:1;" d="M 176.878906 77.859375 C 177.492188 78.546875 177.957031 79.105469 178.46875 79.8125 C 178.578125 80.058594 178.636719 80.152344 178.65625 80.40625 C 178.140625 81.128906 178.234375 81.746094 178.371094 82.402344 C 178.566406 83.34375 178.382812 84.175781 177.28125 84.71875 C 176.046875 84.695312 175.816406 83.664062 175.085938 82.96875 C 174.914062 82.765625 174.851562 82.683594 174.707031 82.46875 C 174.441406 81.980469 174.222656 81.660156 173.71875 81.394531 C 172.820312 80.890625 172.214844 80.300781 171.6875 79.414062 C 171.378906 78.664062 171.027344 78.167969 170.214844 77.902344 C 169.960938 77.773438 169.863281 77.714844 169.625 77.546875 C 163.496094 73.335938 157.253906 73.128906 150.664062 76.339844 C 150.441406 76.523438 150.347656 76.59375 150.113281 76.75 C 149.585938 77.042969 149.179688 77.214844 148.785156 77.683594 C 147.695312 78.839844 146.773438 79.941406 145.417969 80.8125 C 144.660156 81.121094 144.167969 81.484375 143.886719 82.296875 C 143.75 82.546875 143.683594 82.640625 143.503906 82.871094 C 140.449219 86.757812 139.621094 91.082031 140.386719 95.648438 C 140.832031 98.308594 141.257812 101.089844 143.332031 103.367188 C 143.523438 103.582031 143.59375 103.675781 143.75 103.910156 C 144.09375 104.632812 144.296875 105.253906 145.128906 105.550781 C 145.675781 105.828125 145.988281 106.125 146.324219 106.632812 C 146.703125 107.457031 147.042969 108.109375 147.957031 108.445312 C 148.199219 108.558594 148.292969 108.609375 148.519531 108.746094 C 149.1875 109.363281 149.769531 109.8125 150.710938 109.949219 C 151.097656 110.050781 151.316406 110.132812 151.679688 110.328125 C 155.679688 112.84375 159.890625 112.925781 164.03125 111.785156 C 166.796875 111.019531 169.351562 109.480469 171.757812 107.832031 C 173.074219 106.929688 174.132812 105.777344 174.875 104.34375 C 175.445312 103.242188 175.957031 102.085938 177.25 101.320312 C 178.246094 101.230469 179.03125 101.339844 179.941406 101.789062 C 180.578125 102.777344 179.914062 103.453125 179.65625 104.394531 C 179.59375 104.585938 179.519531 104.527344 179.5625 104.546875 C 178.800781 105.398438 178.570312 106.613281 177.660156 107.570312 C 177.613281 107.738281 177.613281 107.894531 177.554688 107.941406 C 176.78125 108.886719 176.800781 109.882812 177.328125 110.789062 C 178.320312 112.503906 178.484375 114.394531 178.648438 116.453125 C 177.863281 117.167969 177.242188 117.742188 177.09375 118.714844 C 176.988281 119.425781 176.804688 120.171875 175.660156 120.175781 C 174.808594 118.765625 174.6875 117.289062 174.449219 115.828125 C 173.964844 112.828125 172.992188 112.378906 170.304688 113.824219 C 164.347656 117.03125 157.996094 117.726562 151.789062 115.324219 C 143.675781 112.1875 137.839844 106.425781 136.203125 97.582031 C 133.71875 84.140625 143.871094 72.164062 155.234375 70.214844 C 162.914062 68.898438 169.070312 71.570312 174.796875 76.144531 C 175.445312 76.664062 176.132812 77.140625 176.878906 77.859375 Z M 176.878906 77.859375 "/>
<path style=" stroke:none;fill-rule:nonzero;fill:rgb(44.705882%,76.470588%,93.72549%);fill-opacity:1;" d="M 105.152344 56.15625 C 103.625 56.6875 102.214844 56.53125 100.589844 56.449219 C 99.671875 55.476562 99.902344 54.472656 100.085938 53.503906 C 100.347656 52.105469 100.363281 50.699219 100.316406 49.285156 C 100.296875 48.703125 100.316406 47.964844 99.804688 47.683594 C 97.460938 46.386719 94.878906 45.796875 92.25 45.464844 C 91.660156 45.386719 91.457031 45.960938 91.75 46.53125 C 91.945312 46.910156 92.253906 47.203125 92.605469 47.417969 C 96.109375 49.535156 97.015625 52.808594 96.621094 56.765625 C 95.089844 56.902344 93.667969 56.886719 92.027344 56.769531 C 91.386719 56.109375 91.429688 55.429688 91.324219 54.792969 C 91.152344 53.761719 90.820312 52.835938 89.585938 52.761719 C 88.4375 52.695312 87.796875 53.414062 87.375 54.382812 C 87.148438 54.90625 87.042969 55.484375 86.515625 56.019531 C 85.082031 56.148438 83.941406 55.609375 82.621094 55.132812 C 82.566406 54.4375 82.496094 53.777344 82.761719 53.308594 C 84.882812 49.558594 86.691406 45.785156 86.15625 41.230469 C 86.011719 40.019531 87.527344 39.472656 88.632812 39.109375 C 92.625 37.785156 96.632812 36.507812 100.816406 35.25 C 101.402344 36.175781 100.617188 36.398438 100.140625 36.796875 C 99.738281 37.132812 98.878906 37.285156 99.324219 38.042969 C 99.667969 38.636719 100.363281 38.40625 100.914062 38.25 C 105.210938 37.023438 109.445312 35.597656 113.667969 34.144531 C 116.011719 33.339844 118.359375 32.527344 120.78125 31.980469 C 121.5625 31.804688 122.375 31.363281 123.15625 32.296875 C 122.898438 33.816406 121.652344 33.851562 120.691406 34.175781 C 114.554688 36.253906 108.355469 38.140625 102.1875 40.117188 C 101.496094 40.339844 100.726562 40.40625 100.117188 41.242188 C 101.617188 42.136719 103.488281 42 104.785156 43.421875 C 106.480469 46.589844 106.585938 46.632812 109.917969 45.960938 C 114.539062 45.03125 119.226562 44.554688 123.894531 43.933594 C 124.867188 43.804688 125.894531 43.734375 126.660156 44.863281 C 126.316406 46.195312 125.3125 46.121094 124.429688 46.171875 C 119.609375 46.445312 114.894531 47.386719 110.179688 48.34375 C 106.882812 49.015625 106.277344 49.695312 105.800781 53.089844 C 105.664062 54.066406 105.785156 55.089844 105.152344 56.15625 Z M 105.152344 56.15625 "/>
<path style=" stroke:none;fill-rule:nonzero;fill:rgb(18.823529%,24.313725%,36.470588%);fill-opacity:1;" d="M 176.976562 77.828125 C 174.402344 77.25 172.421875 75.359375 170.3125 73.851562 C 166.183594 70.898438 161.695312 70.132812 156.882812 70.640625 C 147.253906 71.652344 141.199219 77.527344 137.671875 85.980469 C 134.96875 92.460938 136.234375 101.875 141.605469 107.425781 C 145.285156 111.230469 149.222656 114.609375 154.632812 115.621094 C 160.300781 116.683594 165.714844 116.019531 170.726562 113.015625 C 173.097656 111.597656 173.804688 111.742188 174.636719 114.449219 C 175.144531 116.089844 175.226562 117.859375 175.507812 119.785156 C 175.761719 120.292969 175.972656 120.605469 176.164062 121.148438 C 176.300781 121.582031 176.371094 121.832031 176.484375 122.277344 C 177.1875 129.382812 175.5625 135.929688 173.261719 142.34375 C 172.652344 144.046875 171.902344 145.710938 171.082031 147.550781 C 167.996094 152.265625 164.878906 156.707031 160.769531 160.347656 C 159.789062 161.21875 158.925781 162.265625 157.285156 162.25 C 156.210938 161.121094 157.109375 160.542969 157.777344 159.96875 C 159.546875 158.449219 161.195312 156.808594 162.820312 154.910156 C 162.96875 154.671875 163.035156 154.582031 163.199219 154.359375 C 163.648438 153.816406 164.054688 153.460938 164.503906 152.929688 C 164.789062 152.554688 164.972656 152.300781 165.226562 151.898438 C 165.683594 151.261719 166.144531 150.824219 166.53125 150.140625 C 166.757812 149.734375 166.914062 149.472656 167.136719 149.070312 C 167.480469 148.527344 167.804688 148.15625 168.101562 147.589844 C 168.304688 147.203125 168.445312 146.949219 168.636719 146.554688 C 168.828125 146.15625 168.964844 145.898438 169.152344 145.496094 C 169.34375 145.089844 169.484375 144.824219 169.671875 144.410156 C 169.859375 143.933594 170.019531 143.578125 169.308594 143.445312 C 167.394531 143.140625 166.273438 142.019531 165.304688 140.433594 C 164.640625 139.191406 163.980469 138.152344 163.046875 137.097656 C 162.863281 136.878906 162.792969 136.789062 162.621094 136.5625 C 160.960938 134.265625 158.980469 132.511719 156.871094 130.65625 C 156.632812 130.5 156.539062 130.433594 156.3125 130.265625 C 155.597656 129.628906 154.992188 129.132812 154.132812 128.683594 C 149.636719 125.835938 144.890625 124.117188 139.667969 123.113281 C 139.386719 122.980469 139.277344 122.917969 139.03125 122.726562 C 138.847656 122.484375 138.800781 122.367188 138.761719 122.0625 C 139.449219 120.589844 140.597656 120.925781 141.621094 121.164062 C 151.609375 123.476562 160.082031 128.125 165.761719 137.019531 C 166.386719 138 167.011719 138.984375 167.742188 139.890625 C 168.101562 140.335938 168.519531 140.941406 169.167969 140.609375 C 169.960938 140.203125 169.679688 139.449219 169.375 138.867188 C 168.175781 136.574219 166.667969 134.503906 164.945312 132.558594 C 158.050781 124.753906 149.242188 120.460938 139.066406 118.226562 C 138.621094 117.753906 138.707031 117.417969 139.195312 117.113281 C 153.117188 119.371094 163.621094 126.378906 170.777344 138.347656 C 171.101562 138.890625 171.214844 139.746094 171.988281 139.78125 C 172.71875 139.816406 172.78125 139.027344 172.941406 138.503906 C 175.292969 130.871094 175.738281 123.148438 174.003906 115.324219 C 173.546875 113.242188 172.851562 112.589844 170.644531 113.832031 C 161.808594 118.808594 151.59375 117.691406 143.867188 111.140625 C 136.40625 104.816406 133.609375 94.613281 136.851562 85.539062 C 140.21875 76.105469 148.996094 69.578125 158.863281 69.46875 C 166.085938 69.390625 172.125 72.25 176.976562 77.828125 Z M 176.976562 77.828125 "/>
<path style=" stroke:none;fill-rule:nonzero;fill:rgb(42.745098%,76.470588%,93.333333%);fill-opacity:1;" d="M 139.382812 116.902344 C 139.179688 117.261719 138.96875 117.398438 138.683594 117.644531 C 138.144531 119.097656 136.570312 119.757812 136.34375 121.457031 C 134.488281 123.671875 133.53125 126.34375 131.28125 128.28125 C 130.515625 128.867188 129.820312 129.0625 128.863281 128.914062 C 126.25 127.59375 125.429688 124.886719 123.472656 122.949219 C 123.175781 122.492188 123.082031 122.152344 123.144531 121.609375 C 123.136719 119.734375 122.152344 118.691406 120.574219 117.855469 C 120.359375 117.261719 120.457031 116.660156 120.207031 116.308594 C 118.136719 113.410156 119.269531 111.269531 121.636719 109.242188 C 123.710938 107.46875 125.707031 105.59375 127.625 103.648438 C 128.824219 102.4375 129.917969 102.457031 131.074219 103.511719 C 133.515625 105.75 135.859375 108.101562 138.363281 110.269531 C 140.578125 112.1875 139.769531 114.433594 139.382812 116.902344 Z M 139.382812 116.902344 "/>
<path style=" stroke:none;fill-rule:nonzero;fill:rgb(39.215686%,76.078431%,96.470588%);fill-opacity:1;" d="M 123.171875 32.625 C 121.332031 31.867188 119.761719 32.785156 118.367188 33.25 C 112.75 35.125 107.148438 37.039062 101.484375 38.761719 C 100.257812 39.136719 98.78125 40.039062 98.179688 38.136719 C 97.617188 36.378906 99.546875 36.6875 100.351562 36.054688 C 100.542969 35.90625 100.714844 35.734375 100.945312 35.425781 C 102.210938 34.875 103.429688 34.46875 104.835938 34.0625 C 107.3125 33.53125 109.492188 32.667969 111.855469 31.835938 C 113.714844 31.203125 115.421875 30.632812 117.316406 30.058594 C 117.601562 30.097656 117.695312 30.144531 117.898438 30.074219 C 118.644531 29.765625 119.277344 29.574219 120.082031 29.390625 C 120.601562 29.332031 120.875 29.09375 121.347656 28.875 C 122.886719 28.390625 124.269531 27.980469 125.839844 27.574219 C 126.515625 27.511719 126.984375 27.527344 127.589844 27.835938 C 127.921875 27.820312 128.082031 27.804688 128.363281 27.882812 C 128.601562 28.109375 128.753906 28.265625 129.109375 28.394531 C 129.433594 28.378906 129.59375 28.351562 129.875 28.367188 C 130.03125 28.597656 130.144531 28.6875 130.421875 28.59375 C 130.726562 28.53125 130.953125 28.5625 131.335938 28.65625 C 131.832031 28.914062 132.164062 29.117188 132.640625 29.347656 C 132.941406 29.308594 133.101562 29.300781 133.378906 29.386719 C 133.5625 29.503906 133.636719 29.582031 133.855469 29.597656 C 134.226562 29.5625 134.453125 29.597656 134.835938 29.707031 C 136.679688 30.445312 138.398438 31.015625 140.304688 31.550781 C 141.695312 31.925781 142.917969 32.273438 144.316406 32.703125 C 147.179688 33.777344 149.894531 34.6875 152.808594 35.535156 C 153.394531 35.65625 153.804688 35.757812 154.355469 35.945312 C 155.5 37.394531 154.605469 38.210938 153.476562 39.117188 C 152.988281 39.4375 152.636719 39.59375 152.089844 39.78125 C 150.621094 39.953125 149.507812 39.378906 148.191406 38.894531 C 147.300781 38.238281 146.515625 37.785156 145.390625 37.6875 C 144.273438 37.613281 143.324219 37.5625 142.304688 37.027344 C 141.398438 36.332031 140.648438 35.695312 139.398438 35.867188 C 138.632812 35.878906 138.097656 35.671875 137.429688 35.308594 C 134.925781 34.167969 132.597656 33.050781 129.773438 32.902344 C 127.507812 32.5625 125.414062 32.847656 123.171875 32.625 Z M 123.171875 32.625 "/>
<path style=" stroke:none;fill-rule:nonzero;fill:rgb(44.705882%,76.862745%,93.72549%);fill-opacity:1;" d="M 152.890625 39.144531 C 153.40625 38.085938 154.867188 37.765625 154.492188 36.214844 C 157.933594 36.605469 161.160156 37.898438 164.425781 39.039062 C 165.414062 39.386719 166.5625 39.820312 166.425781 41.226562 C 166.296875 42.5625 165.328125 43.242188 164.160156 43.582031 C 161.304688 44.417969 158.453125 45.289062 155.554688 45.953125 C 151.070312 46.980469 150.753906 47.378906 151.382812 51.925781 C 151.5625 53.234375 151.519531 54.570312 151.585938 56.113281 C 150.207031 56.609375 148.828125 56.421875 147.261719 56.203125 C 146.074219 55.203125 146.351562 53.96875 146.328125 52.839844 C 146.296875 51.179688 145.867188 49.726562 144.488281 48.425781 C 144.246094 48.03125 144.171875 47.78125 144.171875 47.324219 C 144.726562 46.035156 145.378906 44.988281 145.71875 43.613281 C 147.652344 42.582031 149.734375 42.566406 151.613281 41.828125 C 152.3125 41.554688 153.382812 41.578125 152.808594 40.136719 C 152.699219 39.742188 152.714844 39.511719 152.890625 39.144531 Z M 152.890625 39.144531 "/>
<path style=" stroke:none;fill-rule:nonzero;fill:rgb(9.803922%,16.862745%,33.72549%);fill-opacity:1;" d="M 78.140625 127.679688 C 78.78125 124.148438 78.558594 120.726562 79.433594 117.445312 C 79.578125 116.894531 79.667969 116.269531 79.992188 115.839844 C 80.414062 115.28125 80.878906 114.433594 81.757812 114.75 C 82.609375 115.054688 82.558594 115.953125 82.488281 116.691406 C 82.125 120.570312 81.734375 124.460938 82.03125 128.347656 C 82.449219 133.734375 83.714844 138.949219 85.96875 143.886719 C 86.308594 144.636719 86.78125 145.53125 87.769531 145.296875 C 89 145 89.039062 145.683594 88.988281 146.488281 C 88.929688 147.4375 89.441406 148.777344 88.304688 149.179688 C 87.097656 149.605469 86.703125 148.417969 86.398438 147.441406 C 86.328125 147.214844 86.164062 146.898438 85.980469 146.847656 C 81.980469 145.761719 81.96875 142.015625 80.757812 139.066406 C 80.636719 138.765625 80.414062 138.503906 80.078125 138.148438 C 79.917969 138.074219 79.9375 138.054688 79.933594 138.066406 C 79.644531 137.5 79.832031 136.859375 79.558594 136.148438 C 78.511719 133.394531 78.425781 130.625 78.140625 127.679688 Z M 78.140625 127.679688 "/>
<path style=" stroke:none;fill-rule:nonzero;fill:rgb(10.980392%,18.431373%,32.941176%);fill-opacity:1;" d="M 156.683594 161.90625 C 158.25 161.957031 159.09375 161.027344 160.027344 160.195312 C 164 156.648438 167.132812 152.414062 170.253906 147.992188 C 172.445312 148.296875 172.980469 146.648438 173.882812 145.425781 C 174.863281 144.097656 174.714844 142.027344 176.738281 141.394531 C 173.875 151.273438 167.894531 158.9375 159.945312 165.191406 C 159.234375 165.75 158.527344 166.316406 157.679688 166.980469 C 156.359375 167.445312 155.324219 167.007812 154.15625 166.371094 C 153.109375 164.195312 155.296875 163.640625 156.054688 162.199219 C 156.289062 162.003906 156.394531 161.941406 156.683594 161.90625 Z M 156.683594 161.90625 "/>
<path style=" stroke:none;fill-rule:nonzero;fill:rgb(3.529412%,12.54902%,31.372549%);fill-opacity:1;" d="M 176.945312 141.378906 C 175.425781 142.457031 175.304688 144.21875 174.511719 145.582031 C 173.882812 146.660156 173.21875 147.664062 172.269531 148.460938 C 171.65625 148.976562 171.007812 149.359375 170.46875 148.128906 C 171.199219 144.296875 173.296875 141.132812 174.148438 137.464844 C 175.296875 132.527344 176.238281 127.609375 175.972656 122.289062 C 175.914062 121.96875 175.847656 121.878906 175.679688 121.65625 C 175.554688 121.144531 175.535156 120.761719 175.515625 120.191406 C 176.757812 119.824219 176.515625 118.847656 176.484375 118.078125 C 176.4375 116.898438 176.941406 116.398438 178.300781 116.5 C 179.441406 118.972656 179.226562 121.617188 179.765625 124.34375 C 179.871094 125.371094 179.882812 126.214844 179.835938 127.257812 C 179.039062 130.691406 178.746094 133.992188 178.136719 137.449219 C 178.066406 137.644531 178.078125 137.835938 178.023438 137.914062 C 177.734375 138.25 177.746094 138.589844 177.628906 139.058594 C 177.605469 139.21875 177.609375 139.386719 177.546875 139.441406 C 177.222656 139.753906 177.246094 140.121094 177.113281 140.605469 C 177.066406 140.9375 177.039062 141.105469 176.945312 141.378906 Z M 176.945312 141.378906 "/>
<path style=" stroke:none;fill-rule:nonzero;fill:rgb(11.764706%,18.823529%,36.078431%);fill-opacity:1;" d="M 79.898438 86.542969 C 81.277344 85.589844 82.605469 84.417969 84.445312 86.019531 C 85.261719 86.882812 85 87.796875 84.792969 88.664062 C 83.476562 94.121094 84.539062 99.125 87.5625 103.78125 C 87.917969 104.335938 88.3125 104.878906 88.183594 105.777344 C 86.40625 105.960938 84.761719 104.605469 82.984375 105.949219 C 81.894531 105.328125 81.5625 104.078125 80.957031 102.816406 C 80.8125 102.339844 80.765625 102.011719 80.539062 101.589844 C 80.414062 101.484375 80.359375 101.429688 80.359375 101.386719 C 80.421875 100.972656 80.257812 100.625 80.066406 100.148438 C 79.925781 100.03125 79.972656 100.023438 79.957031 100.042969 C 79.707031 99.652344 79.773438 99.195312 79.695312 98.53125 C 79.003906 94.5625 79.011719 90.828125 79.878906 86.882812 C 79.914062 86.660156 79.882812 86.582031 79.898438 86.542969 Z M 79.898438 86.542969 "/>
<path style=" stroke:none;fill-rule:nonzero;fill:rgb(3.529412%,12.54902%,31.372549%);fill-opacity:1;" d="M 176.84375 84.695312 C 178.152344 83.890625 178.296875 82.964844 177.597656 81.910156 C 177.085938 81.136719 176.871094 80.589844 178.285156 80.503906 C 178.644531 80.535156 178.789062 80.632812 178.996094 80.875 C 179.265625 81.128906 179.421875 81.3125 179.605469 81.609375 C 182.3125 87.007812 183.304688 92.523438 181.988281 98.367188 C 181.695312 99.660156 181.46875 100.980469 180.265625 101.996094 C 179.269531 101.929688 178.453125 102.179688 177.589844 101.589844 C 176.796875 100.703125 177.082031 99.867188 177.316406 99.105469 C 178.625 94.871094 178.539062 90.703125 176.910156 86.566406 C 176.703125 86.039062 176.578125 85.457031 176.84375 84.695312 Z M 176.84375 84.695312 "/>
<path style=" stroke:none;fill-rule:nonzero;fill:rgb(42.745098%,76.470588%,93.333333%);fill-opacity:1;" d="M 153.871094 166.003906 C 155.035156 166.425781 156.125 166.660156 157.378906 166.984375 C 156.050781 170.164062 155.652344 173.605469 154.421875 176.769531 C 153.972656 177.929688 153.285156 179.257812 151.71875 178.660156 C 150.339844 178.136719 149.691406 176.976562 150.335938 175.417969 C 150.460938 175.113281 150.515625 174.777344 150.648438 174.472656 C 151.085938 173.449219 151.1875 172.390625 151.019531 171.070312 C 151.683594 169.757812 152.371094 168.675781 152.6875 167.21875 C 152.585938 166.195312 152.890625 165.738281 153.871094 166.003906 Z M 153.871094 166.003906 "/>
<path style=" stroke:none;fill-rule:nonzero;fill:rgb(41.568627%,76.470588%,92.156863%);fill-opacity:1;" d="M 99.902344 166.976562 C 103.414062 165.148438 103.5 165.191406 105.109375 168.828125 C 105.304688 169.273438 105.621094 169.664062 105.929688 170.246094 C 105.652344 172.097656 106.445312 173.667969 106.5 175.324219 C 106.542969 176.5625 106.535156 177.863281 105.21875 178.238281 C 103.722656 178.664062 102.894531 177.375 102.511719 176.230469 C 101.640625 173.648438 101.011719 170.980469 100.28125 168.351562 C 100.171875 167.953125 100.042969 167.558594 99.902344 166.976562 Z M 99.902344 166.976562 "/>
<path style=" stroke:none;fill-rule:nonzero;fill:rgb(43.921569%,77.254902%,97.647059%);fill-opacity:1;" d="M 165.992188 172.4375 C 166.453125 170.890625 166.835938 169.53125 167.300781 168.199219 C 167.6875 167.089844 168.386719 166.25 169.710938 166.558594 C 170.976562 166.855469 171.5 167.945312 171.3125 169.046875 C 170.824219 171.910156 170.128906 174.75 168.90625 177.40625 C 168.421875 178.457031 167.5 179.121094 166.269531 178.714844 C 165.121094 178.332031 164.882812 177.304688 165.066406 176.257812 C 165.28125 175.035156 165.648438 173.84375 165.992188 172.4375 Z M 165.992188 172.4375 "/>
<path style=" stroke:none;fill-rule:nonzero;fill:rgb(41.960784%,77.254902%,97.647059%);fill-opacity:1;" d="M 97.011719 164.980469 C 97.109375 167.894531 98.828125 170.410156 99.148438 173.28125 C 99.222656 173.9375 99.46875 174.574219 99.527344 175.226562 C 99.609375 176.171875 99.484375 177.109375 98.402344 177.453125 C 97.328125 177.796875 96.289062 177.496094 95.851562 176.480469 C 94.644531 173.667969 93.578125 170.738281 93.304688 167.710938 C 93.128906 165.804688 94.578125 164.761719 96.84375 165.050781 C 97.035156 164.980469 97.003906 164.996094 97.011719 164.980469 Z M 97.011719 164.980469 "/>
<path style=" stroke:none;fill-rule:nonzero;fill:rgb(43.921569%,77.254902%,97.647059%);fill-opacity:1;" d="M 89.179688 176.746094 C 88.117188 174.121094 87.277344 171.621094 86.816406 169.003906 C 86.570312 167.609375 86.855469 166.433594 88.308594 166.050781 C 89.65625 165.699219 90.535156 166.550781 90.910156 167.777344 C 91.65625 170.226562 92.375 172.6875 92.976562 175.171875 C 93.265625 176.355469 92.972656 177.566406 91.820312 178.207031 C 90.457031 178.964844 89.984375 177.628906 89.179688 176.746094 Z M 89.179688 176.746094 "/>
<path style=" stroke:none;fill-rule:nonzero;fill:rgb(41.960784%,77.254902%,97.647059%);fill-opacity:1;" d="M 163.550781 171.527344 C 163.027344 173.398438 162.585938 175.074219 162.058594 176.722656 C 161.652344 177.976562 160.90625 179.132812 159.417969 178.796875 C 157.828125 178.441406 157.871094 176.992188 158.136719 175.753906 C 158.621094 173.496094 159.171875 171.246094 159.851562 169.042969 C 160.257812 167.71875 160.816406 166.140625 162.683594 166.585938 C 164.484375 167.015625 164.015625 168.605469 163.945312 169.882812 C 163.917969 170.367188 163.71875 170.84375 163.550781 171.527344 Z M 163.550781 171.527344 "/>
<path style=" stroke:none;fill-rule:nonzero;fill:rgb(18.823529%,24.313725%,36.470588%);fill-opacity:1;" d="M 117.519531 75.3125 C 115.808594 75.472656 114.847656 73.984375 113.511719 73.207031 C 102.910156 67.050781 91.097656 70.527344 84.183594 79.425781 C 83.996094 79.664062 83.640625 79.773438 83.195312 79.976562 C 86.3125 73.671875 96.066406 68.773438 103.914062 69.496094 C 109.027344 69.964844 113.570312 71.773438 117.519531 75.3125 Z M 117.519531 75.3125 "/>
<path style=" stroke:none;fill-rule:nonzero;fill:rgb(18.823529%,24.313725%,36.470588%);fill-opacity:1;" d="M 180.015625 102.199219 C 182.75 97.03125 182.417969 91.835938 181.082031 86.59375 C 180.695312 85.078125 180.078125 83.617188 179.601562 81.929688 C 183.9375 89.242188 183.8125 96.800781 179.738281 104.496094 C 179.332031 103.785156 179.78125 103.105469 180.015625 102.199219 Z M 180.015625 102.199219 "/>
<path style=" stroke:none;fill-rule:nonzero;fill:rgb(18.823529%,24.313725%,36.470588%);fill-opacity:1;" d="M 179.910156 124.3125 C 179.304688 124.394531 179 124.015625 179.054688 123.472656 C 179.289062 121.257812 178.480469 119.132812 178.511719 116.71875 C 178.125 114.605469 178.109375 112.640625 176.890625 110.933594 C 176.296875 110.101562 176.109375 108.949219 177.3125 108.035156 C 177.167969 109.722656 178.082031 111.207031 178.453125 112.800781 C 179.316406 116.515625 179.582031 120.3125 179.910156 124.3125 Z M 179.910156 124.3125 "/>
<path style=" stroke:none;fill-rule:nonzero;fill:rgb(18.823529%,24.313725%,36.470588%);fill-opacity:1;" d="M 125.875 95.273438 C 125.378906 91.445312 124.992188 87.457031 123.570312 83.464844 C 125.820312 86.925781 126.242188 90.949219 125.875 95.273438 Z M 125.875 95.273438 "/>
<path style=" stroke:none;fill-rule:nonzero;fill:rgb(18.823529%,24.313725%,36.470588%);fill-opacity:1;" d="M 89.964844 113.199219 C 92.027344 113.332031 93.664062 114.910156 95.75 115.347656 C 97.09375 115.628906 98.429688 115.941406 99.894531 116.394531 C 96.308594 116.683594 93.148438 115.113281 89.964844 113.199219 Z M 89.964844 113.199219 "/>
<path style=" stroke:none;fill-rule:nonzero;fill:rgb(18.823529%,24.313725%,36.470588%);fill-opacity:1;" d="M 122.160156 105.949219 C 123.117188 102.882812 124.746094 99.941406 125.488281 96.554688 C 125.527344 99.964844 124.097656 102.988281 122.160156 105.949219 Z M 122.160156 105.949219 "/>
<path style=" stroke:none;fill-rule:nonzero;fill:rgb(18.823529%,24.313725%,36.470588%);fill-opacity:1;" d="M 178.203125 137.503906 C 178.082031 134.238281 178.730469 130.917969 179.605469 127.53125 C 179.601562 130.804688 179.113281 134.105469 178.203125 137.503906 Z M 178.203125 137.503906 "/>
<path style=" stroke:none;fill-rule:nonzero;fill:rgb(18.823529%,24.313725%,36.470588%);fill-opacity:1;" d="M 83.113281 106.65625 C 85.101562 107.796875 86.394531 109.789062 87.996094 111.664062 C 85.890625 110.648438 84.40625 108.832031 83.113281 106.65625 Z M 83.113281 106.65625 "/>
<path style=" stroke:none;fill-rule:nonzero;fill:rgb(44.705882%,76.862745%,93.72549%);fill-opacity:1;" d="M 152.867188 35.417969 C 149.953125 35.542969 147.332031 34.136719 144.550781 32.9375 C 147.382812 33.171875 150.003906 34.433594 152.867188 35.417969 Z M 152.867188 35.417969 "/>
<path style=" stroke:none;fill-rule:nonzero;fill:rgb(10.196078%,17.254902%,32.941176%);fill-opacity:1;" d="M 79.761719 86.808594 C 80.234375 88.964844 79.253906 91.175781 79.460938 93.5 C 79.601562 95.042969 79.574219 96.601562 79.980469 98.328125 C 79.890625 98.613281 79.800781 98.6875 79.59375 98.636719 C 78.539062 94.648438 78.660156 90.800781 79.761719 86.808594 Z M 79.761719 86.808594 "/>
<path style=" stroke:none;fill-rule:nonzero;fill:rgb(44.705882%,76.470588%,93.72549%);fill-opacity:1;" d="M 111.828125 31.730469 C 110.046875 33.390625 107.582031 33.660156 105.136719 34.179688 C 107.0625 32.804688 109.4375 32.480469 111.828125 31.730469 Z M 111.828125 31.730469 "/>
<path style=" stroke:none;fill-rule:nonzero;fill:rgb(44.705882%,76.862745%,93.72549%);fill-opacity:1;" d="M 140.355469 31.445312 C 138.453125 31.90625 136.828125 30.828125 135.050781 29.929688 C 136.851562 29.910156 138.519531 30.703125 140.355469 31.445312 Z M 140.355469 31.445312 "/>
<path style=" stroke:none;fill-rule:nonzero;fill:rgb(18.823529%,24.313725%,36.470588%);fill-opacity:1;" d="M 177.765625 107.652344 C 177.507812 106.359375 178.515625 105.578125 179.433594 104.613281 C 179.394531 105.765625 178.636719 106.65625 177.765625 107.652344 Z M 177.765625 107.652344 "/>
<path style=" stroke:none;fill-rule:nonzero;fill:rgb(18.823529%,24.313725%,36.470588%);fill-opacity:1;" d="M 108.132812 116.039062 C 108.640625 115.289062 109.535156 115.257812 110.550781 115.070312 C 110.066406 115.808594 109.128906 115.867188 108.132812 116.039062 Z M 108.132812 116.039062 "/>
<path style=" stroke:none;fill-rule:nonzero;fill:rgb(18.823529%,24.313725%,36.470588%);fill-opacity:1;" d="M 123.269531 82.363281 C 122.367188 82.296875 122.25 81.503906 122.007812 80.640625 C 122.753906 80.816406 122.9375 81.570312 123.269531 82.363281 Z M 123.269531 82.363281 "/>
<path style=" stroke:none;fill-rule:nonzero;fill:rgb(18.823529%,24.313725%,36.470588%);fill-opacity:1;" d="M 105.128906 116.585938 C 105.484375 115.828125 106.199219 116.015625 107.078125 116.074219 C 106.722656 116.707031 105.96875 116.597656 105.128906 116.585938 Z M 105.128906 116.585938 "/>
<path style=" stroke:none;fill-rule:nonzero;fill:rgb(44.705882%,76.862745%,93.72549%);fill-opacity:1;" d="M 127.679688 27.75 C 127.273438 27.867188 126.785156 27.851562 126.164062 27.707031 C 126.566406 26.957031 127.085938 27.136719 127.679688 27.75 Z M 127.679688 27.75 "/>
<path style=" stroke:none;fill-rule:nonzero;fill:rgb(10.980392%,18.431373%,32.941176%);fill-opacity:1;" d="M 79.410156 136.214844 C 80.144531 136.402344 79.972656 137.078125 79.953125 137.886719 C 79.394531 137.628906 79.589844 136.953125 79.410156 136.214844 Z M 79.410156 136.214844 "/>
<path style=" stroke:none;fill-rule:nonzero;fill:rgb(18.823529%,24.313725%,36.470588%);fill-opacity:1;" d="M 121.117188 107.421875 C 120.96875 107.0625 121.070312 106.734375 121.5625 106.503906 C 121.785156 106.894531 121.511719 107.140625 121.117188 107.421875 Z M 121.117188 107.421875 "/>
<path style=" stroke:none;fill-rule:nonzero;fill:rgb(18.823529%,24.313725%,36.470588%);fill-opacity:1;" d="M 88.417969 112.199219 C 88.8125 112.003906 89.214844 112.074219 89.480469 112.6875 C 89.171875 112.675781 88.824219 112.503906 88.417969 112.199219 Z M 88.417969 112.199219 "/>
<path style=" stroke:none;fill-rule:nonzero;fill:rgb(18.823529%,24.313725%,36.470588%);fill-opacity:1;" d="M 112.105469 114.617188 C 112.117188 114.203125 112.410156 114.019531 112.957031 114.023438 C 112.808594 114.242188 112.523438 114.441406 112.105469 114.617188 Z M 112.105469 114.617188 "/>
<path style=" stroke:none;fill-rule:nonzero;fill:rgb(44.705882%,76.862745%,93.72549%);fill-opacity:1;" d="M 132.703125 29.230469 C 132.332031 29.453125 131.890625 29.507812 131.546875 28.878906 C 131.960938 28.558594 132.320312 28.746094 132.703125 29.230469 Z M 132.703125 29.230469 "/>
<path style=" stroke:none;fill-rule:nonzero;fill:rgb(44.705882%,76.470588%,93.72549%);fill-opacity:1;" d="M 121.359375 28.753906 C 121.359375 29.253906 121.050781 29.46875 120.414062 29.421875 C 120.464844 29.019531 120.738281 28.722656 121.359375 28.753906 Z M 121.359375 28.753906 "/>
<path style=" stroke:none;fill-rule:nonzero;fill:rgb(18.823529%,24.313725%,36.470588%);fill-opacity:1;" d="M 79.46875 98.683594 C 79.558594 98.511719 79.640625 98.515625 79.851562 98.527344 C 79.980469 98.921875 79.984375 99.300781 79.964844 99.875 C 79.496094 99.773438 79.542969 99.289062 79.46875 98.683594 Z M 79.46875 98.683594 "/>
<path style=" stroke:none;fill-rule:nonzero;fill:rgb(18.823529%,24.313725%,36.470588%);fill-opacity:1;" d="M 179.097656 80.796875 C 178.949219 80.875 178.789062 80.796875 178.542969 80.609375 C 178.464844 80.410156 178.46875 80.320312 178.496094 80.097656 C 178.707031 80.191406 178.894531 80.417969 179.097656 80.796875 Z M 179.097656 80.796875 "/>
<path style=" stroke:none;fill-rule:nonzero;fill:rgb(18.823529%,24.313725%,36.470588%);fill-opacity:1;" d="M 79.929688 100.210938 C 80.289062 100.238281 80.441406 100.558594 80.390625 101.160156 C 80.214844 101.027344 80.074219 100.710938 79.929688 100.210938 Z M 79.929688 100.210938 "/>
<path style=" stroke:none;fill-rule:nonzero;fill:rgb(18.823529%,24.313725%,36.470588%);fill-opacity:1;" d="M 80.421875 101.652344 C 80.597656 101.757812 80.78125 102.027344 80.953125 102.472656 C 80.773438 102.371094 80.601562 102.09375 80.421875 101.652344 Z M 80.421875 101.652344 "/>
<path style=" stroke:none;fill-rule:nonzero;fill:rgb(10.980392%,18.431373%,32.941176%);fill-opacity:1;" d="M 177.222656 140.652344 C 177.136719 140.425781 177.175781 140.078125 177.347656 139.613281 C 177.4375 139.839844 177.394531 140.1875 177.222656 140.652344 Z M 177.222656 140.652344 "/>
<path style=" stroke:none;fill-rule:nonzero;fill:rgb(18.823529%,24.313725%,36.470588%);fill-opacity:1;" d="M 177.730469 139.105469 C 177.640625 138.886719 177.679688 138.554688 177.84375 138.109375 C 177.933594 138.324219 177.894531 138.660156 177.730469 139.105469 Z M 177.730469 139.105469 "/>
<path style=" stroke:none;fill-rule:nonzero;fill:rgb(44.705882%,76.470588%,93.72549%);fill-opacity:1;" d="M 117.875 29.957031 C 117.875 30.039062 117.746094 30.125 117.558594 30.128906 C 117.585938 30.019531 117.667969 29.988281 117.875 29.957031 Z M 117.875 29.957031 "/>
<path style=" stroke:none;fill-rule:nonzero;fill:rgb(44.705882%,76.862745%,93.72549%);fill-opacity:1;" d="M 133.878906 29.480469 C 133.882812 29.714844 133.757812 29.851562 133.527344 29.519531 C 133.578125 29.429688 133.667969 29.429688 133.878906 29.480469 Z M 133.878906 29.480469 "/>
<path style=" stroke:none;fill-rule:nonzero;fill:rgb(44.705882%,76.862745%,93.72549%);fill-opacity:1;" d="M 130.378906 28.457031 C 130.390625 28.695312 130.269531 28.851562 130.027344 28.503906 C 130.078125 28.40625 130.167969 28.410156 130.378906 28.457031 Z M 130.378906 28.457031 "/>
<path style=" stroke:none;fill-rule:nonzero;fill:rgb(44.705882%,76.862745%,93.72549%);fill-opacity:1;" d="M 129.179688 28.269531 C 129.070312 28.335938 128.863281 28.269531 128.570312 28.058594 C 128.683594 27.992188 128.886719 28.0625 129.179688 28.269531 Z M 129.179688 28.269531 "/>
<path style=" stroke:none;fill-rule:nonzero;fill:rgb(98.823529%,99.607843%,99.607843%);fill-opacity:1;" d="M 90.097656 200.984375 C 93.828125 212.875 86.902344 222.441406 74.65625 222.570312 C 71.742188 222.601562 68.824219 222.503906 65.910156 222.609375 C 63.964844 222.679688 63.089844 221.746094 63.082031 219.964844 C 63.0625 211.136719 63.074219 202.308594 63.128906 193.476562 C 63.132812 192.285156 63.472656 190.949219 65 190.988281 C 70.625 191.140625 76.339844 190.148438 81.804688 192.355469 C 85.804688 193.96875 88.703125 196.605469 90.097656 200.984375 Z M 90.097656 200.984375 "/>
<path style=" stroke:none;fill-rule:nonzero;fill:rgb(98.039216%,98.431373%,98.823529%);fill-opacity:1;" d="M 144.355469 47.777344 C 146.65625 48.683594 146.984375 50.46875 146.960938 52.460938 C 146.945312 53.523438 146.988281 54.585938 147.042969 55.886719 C 144.859375 56.414062 142.628906 56.65625 140.417969 57.007812 C 135.890625 57.71875 131.929688 59.894531 127.957031 61.992188 C 126.671875 62.667969 125.574219 62.90625 124.28125 61.96875 C 118.675781 57.90625 112.339844 56.234375 105.238281 56.351562 C 105.007812 55.394531 104.960938 54.480469 105.015625 53.574219 C 105.292969 49.171875 106.050781 48.3125 110.257812 47.527344 C 115.542969 46.546875 120.8125 45.460938 126.402344 45.265625 C 127.605469 43.964844 128.78125 44.964844 130.074219 44.964844 C 130.863281 45.175781 131.457031 45.359375 132.277344 45.347656 C 132.949219 45.355469 133.433594 45.410156 134.09375 45.515625 C 134.613281 45.628906 134.945312 45.746094 135.464844 45.824219 C 136.09375 45.882812 136.550781 45.9375 137.167969 46.046875 C 137.765625 46.195312 138.1875 46.34375 138.800781 46.40625 C 139.183594 46.453125 139.402344 46.492188 139.78125 46.578125 C 140.261719 46.703125 140.578125 46.804688 141.074219 46.875 C 141.574219 46.929688 141.910156 46.988281 142.410156 47.085938 C 143.125 47.292969 143.703125 47.390625 144.355469 47.777344 Z M 144.355469 47.777344 "/>
<path style=" stroke:none;fill-rule:nonzero;fill:rgb(96.470588%,98.431373%,99.607843%);fill-opacity:1;" d="M 96.707031 56.972656 C 96.355469 55.691406 96.230469 54.460938 96.042969 53.238281 C 95.691406 50.945312 94.375 49.34375 92.441406 48.136719 C 91.421875 47.5 89.929688 46.867188 90.632812 45.328125 C 91.375 43.691406 92.816406 44.742188 93.925781 44.988281 C 95.703125 45.378906 97.425781 46.03125 99.207031 46.375 C 100.664062 46.652344 101.039062 47.429688 101.082031 48.789062 C 101.152344 51.214844 100.734375 53.574219 100.382812 56.160156 C 99.234375 56.710938 98.117188 57.128906 96.707031 56.972656 Z M 96.707031 56.972656 "/>
<path style=" stroke:none;fill-rule:nonzero;fill:rgb(95.686275%,97.254902%,98.039216%);fill-opacity:1;" d="M 86.515625 56.210938 C 86.378906 55.933594 86.398438 55.769531 86.425781 55.605469 C 86.890625 52.90625 88.0625 51.5625 89.847656 51.976562 C 92.199219 52.523438 92.1875 54.378906 91.847656 56.472656 C 90.042969 57.410156 88.351562 57.027344 86.515625 56.210938 Z M 86.515625 56.210938 "/>
<path style=" stroke:none;fill-rule:nonzero;fill:rgb(100%,100%,100%);fill-opacity:1;" d="M 128.355469 128.425781 C 129.273438 128.566406 130.003906 128.597656 130.835938 128.066406 C 133.75 126.699219 134.773438 123.757812 137.042969 121.75 C 137.714844 121.46875 138.222656 121.46875 138.878906 121.789062 C 139.117188 121.96875 139.199219 122.023438 139.386719 122.1875 C 139.488281 122.296875 139.492188 122.371094 139.503906 122.328125 C 144.957031 122.894531 149.839844 124.996094 154.546875 127.980469 C 154.78125 129.15625 155.613281 129.484375 156.578125 129.75 C 156.738281 129.652344 156.78125 129.703125 156.8125 129.703125 C 157.921875 132.785156 160.832031 134.167969 163.117188 136.230469 C 163.285156 136.171875 163.28125 136.230469 163.304688 136.25 C 163.316406 137.882812 164.441406 138.820312 165.636719 139.863281 C 166.875 140.902344 167.453125 142.492188 169.351562 142.703125 C 169.886719 143.183594 170.011719 143.734375 170.292969 144.441406 C 170.308594 144.898438 170.214844 145.175781 170 145.542969 C 169.34375 145.605469 169.128906 145.886719 169.246094 146.503906 C 169.253906 146.886719 169.15625 147.15625 168.9375 147.511719 C 168.148438 147.800781 167.648438 148.148438 167.816406 149.03125 C 167.84375 149.398438 167.730469 149.679688 167.492188 150.039062 C 166.316406 150.320312 165.972656 151.167969 165.628906 152.195312 C 165.566406 152.59375 165.484375 152.796875 165.289062 153.03125 C 164.433594 153.257812 163.875 153.65625 163.742188 154.582031 C 163.835938 154.738281 163.789062 154.777344 163.789062 154.808594 C 162.023438 155.015625 161.355469 156.652344 160.210938 157.625 C 158.261719 159.285156 156.214844 160.867188 154.542969 163.074219 C 154.148438 163.757812 153.730469 164.164062 152.941406 164.347656 C 150.765625 164.289062 149.441406 165.488281 148.042969 166.925781 C 144.0625 168.933594 139.972656 169.984375 135.566406 170.503906 C 134.496094 169.71875 133.84375 170.316406 133.003906 170.914062 C 130.417969 171.039062 128.003906 170.988281 125.410156 170.976562 C 124.359375 171.089844 123.996094 169.460938 122.757812 170.378906 C 118.347656 170.402344 114.460938 169.003906 110.503906 167.21875 C 109.300781 165.320312 107.765625 164.347656 105.492188 164.34375 C 104.027344 164.25 103.144531 163.445312 102.191406 162.441406 C 99.921875 159.074219 96.820312 156.832031 93.679688 154.378906 C 91.054688 152.371094 90.421875 149.9375 91.523438 147.023438 C 92.429688 144.617188 93.222656 142.164062 94.902344 139.925781 C 98.210938 136.65625 101.609375 133.730469 104.433594 130.023438 C 104.667969 129.402344 104.972656 129.046875 105.492188 128.644531 C 105.652344 128.5625 105.863281 128.542969 105.925781 128.453125 C 110.691406 125.339844 115.800781 123.390625 121.519531 122.605469 C 124.476562 123.878906 125.65625 126.902344 128.355469 128.425781 Z M 128.355469 128.425781 "/>
<path style=" stroke:none;fill-rule:nonzero;fill:rgb(18.823529%,24.313725%,36.470588%);fill-opacity:1;" d="M 110.347656 166.683594 C 114.164062 168.914062 118.273438 169.898438 122.714844 170.429688 C 123.351562 170.097656 123.796875 170.023438 124.382812 170.429688 C 127.34375 171.183594 130.203125 171.003906 133.285156 170.675781 C 133.820312 170.097656 134.265625 170.054688 134.921875 170.304688 C 139.558594 170.207031 143.683594 168.683594 147.898438 166.882812 C 149.160156 165.4375 150.535156 164.515625 152.441406 164.257812 C 153.066406 164.101562 153.519531 163.871094 154.058594 163.511719 C 154.433594 162.308594 155.113281 161.765625 156.378906 161.996094 C 156.242188 163.769531 154.234375 164.183594 153.96875 166.003906 C 153.613281 166.441406 153.28125 166.6875 152.839844 166.984375 C 151.207031 166.832031 149.71875 166.980469 148.332031 167.628906 C 140.253906 171.40625 131.671875 172.074219 122.972656 171.441406 C 116.945312 171.003906 111.257812 168.769531 105.996094 166.085938 C 103.144531 164.628906 99.53125 163.339844 98.019531 159.648438 C 100.238281 158.964844 100.929688 161.082031 102.34375 162.1875 C 103.253906 163.015625 104.148438 163.65625 105.210938 164.324219 C 107.464844 164.0625 108.910156 165.25 110.347656 166.683594 Z M 110.347656 166.683594 "/>
<path style=" stroke:none;fill-rule:nonzero;fill:rgb(18.823529%,24.313725%,36.470588%);fill-opacity:1;" d="M 95.320312 139.859375 C 93.203125 142.632812 92.121094 145.75 91.246094 148.964844 C 90.640625 151.195312 92.144531 152.519531 93.433594 154.097656 C 94.003906 154.074219 94.191406 154.238281 93.945312 154.84375 C 91.355469 153.574219 89.929688 151.488281 90.558594 148.6875 C 91.484375 144.558594 93.15625 140.714844 96.199219 137.449219 C 96.460938 137.449219 96.5625 137.507812 96.714844 137.726562 C 96.679688 138.761719 96.1875 139.367188 95.320312 139.859375 Z M 95.320312 139.859375 "/>
<path style=" stroke:none;fill-rule:nonzero;fill:rgb(18.823529%,24.313725%,36.470588%);fill-opacity:1;" d="M 122.125 123.007812 C 116.265625 123.195312 111.226562 125.542969 106.160156 128.339844 C 106.507812 127.109375 107.730469 126.707031 108.78125 126.125 C 113.148438 123.691406 117.960938 122.605469 122.988281 121.511719 C 123.242188 121.648438 123.296875 121.855469 123.386719 122.179688 C 123.359375 123.023438 122.921875 123.261719 122.125 123.007812 Z M 122.125 123.007812 "/>
<path style=" stroke:none;fill-rule:nonzero;fill:rgb(99.607843%,99.607843%,99.607843%);fill-opacity:1;" d="M 93.90625 155.105469 C 93.710938 154.832031 93.664062 154.644531 93.601562 154.316406 C 93.824219 154.144531 94.167969 153.992188 94.300781 154.101562 C 97.238281 156.484375 100.507812 158.535156 102.390625 162.179688 C 100.789062 161.777344 99.613281 160.601562 98.171875 159.523438 C 96.691406 158.046875 95.378906 156.621094 93.90625 155.105469 Z M 93.90625 155.105469 "/>
<path style=" stroke:none;fill-rule:nonzero;fill:rgb(18.823529%,24.313725%,36.470588%);fill-opacity:1;" d="M 105.464844 128.554688 C 105.417969 128.828125 105.183594 129.089844 104.894531 129.476562 C 104.875 130.363281 104.289062 130.8125 103.8125 131.171875 C 101.765625 132.71875 100.042969 134.570312 98.449219 136.5625 C 98.035156 137.078125 97.503906 137.46875 96.660156 137.554688 C 96.488281 137.492188 96.429688 137.4375 96.394531 137.417969 C 98.257812 133.359375 101.308594 130.484375 105.464844 128.554688 Z M 105.464844 128.554688 "/>
<path style=" stroke:none;fill-rule:nonzero;fill:rgb(95.686275%,97.254902%,98.039216%);fill-opacity:1;" d="M 88.257812 106.015625 C 83.667969 100.042969 82.195312 93.597656 84.636719 86.253906 C 87.625 80.074219 92.09375 75.859375 98.855469 74.683594 C 106.183594 73.410156 112.453125 75.625 117.082031 81.4375 C 121.984375 87.59375 122.65625 94.589844 119.257812 101.609375 C 116.078125 108.171875 110.566406 111.671875 103.164062 112.054688 C 97.292969 112.359375 92.441406 110.261719 88.257812 106.015625 Z M 88.257812 106.015625 "/>
<path style=" stroke:none;fill-rule:nonzero;fill:rgb(96.470588%,97.647059%,98.431373%);fill-opacity:1;" d="M 169.851562 77.347656 C 170.011719 77.480469 170.082031 77.617188 170.15625 77.625 C 170.945312 77.746094 171.273438 78.371094 171.882812 78.890625 C 172.574219 79.621094 173.148438 80.234375 173.863281 80.921875 C 174.285156 81.289062 174.5625 81.585938 174.863281 82.046875 C 174.910156 82.191406 174.929688 82.378906 175.007812 82.425781 C 181.148438 91.75 178.285156 101.660156 172.582031 107.105469 C 166.828125 112.589844 158.71875 114.023438 151.644531 110.789062 C 151.308594 110.597656 151.15625 110.503906 150.863281 110.398438 C 149.996094 110.132812 149.398438 109.640625 148.613281 109.144531 C 148.488281 109.039062 148.417969 108.890625 148.332031 108.882812 C 147.34375 108.621094 146.914062 107.777344 146.117188 107.121094 C 145.753906 106.710938 145.511719 106.414062 145.140625 106.058594 C 144.546875 105.539062 144.074219 105.085938 143.664062 104.398438 C 143.640625 104.238281 143.625 104.074219 143.550781 104.039062 C 138.933594 97.425781 138.828125 89.410156 143.332031 82.644531 C 143.46875 82.488281 143.613281 82.417969 143.621094 82.339844 C 143.75 81.554688 144.371094 81.226562 144.894531 80.617188 C 146.097656 79.574219 147.1875 78.644531 148.382812 77.589844 C 148.804688 77.191406 149.117188 76.917969 149.609375 76.65625 C 149.761719 76.632812 149.917969 76.636719 149.957031 76.570312 C 156.703125 72.773438 163.257812 73.230469 169.851562 77.347656 Z M 169.851562 77.347656 "/>
<path style=" stroke:none;fill-rule:nonzero;fill:rgb(18.823529%,24.313725%,36.470588%);fill-opacity:1;" d="M 151.507812 110.859375 C 155.308594 111.898438 159.199219 112.53125 163.214844 111.671875 C 175.613281 109.019531 182.433594 94.878906 175.105469 82.65625 C 176.1875 82.59375 176.160156 83.707031 176.832031 84.414062 C 179.277344 89.960938 179.425781 95.472656 177.46875 101.246094 C 177.21875 101.765625 176.886719 102.058594 176.734375 102.421875 C 174.453125 108.011719 169.523438 110.523438 164.378906 112.304688 C 160.128906 113.769531 155.628906 113.445312 151.507812 110.859375 Z M 151.507812 110.859375 "/>
<path style=" stroke:none;fill-rule:nonzero;fill:rgb(18.823529%,24.313725%,36.470588%);fill-opacity:1;" d="M 143.292969 82.5 C 140.996094 87.210938 139.597656 92.101562 140.910156 97.488281 C 141.445312 99.683594 142.335938 101.703125 143.46875 103.820312 C 142.628906 104.042969 142.359375 103.324219 142.066406 102.789062 C 138.605469 96.457031 138.585938 88.804688 142.484375 82.875 C 142.605469 82.691406 142.902344 82.628906 143.292969 82.5 Z M 143.292969 82.5 "/>
<path style=" stroke:none;fill-rule:nonzero;fill:rgb(18.823529%,24.313725%,36.470588%);fill-opacity:1;" d="M 169.992188 77.308594 C 163.625 73.964844 157.101562 73.207031 150.1875 76.5 C 151.367188 74.175781 153.910156 74.21875 156.042969 73.847656 C 161.074219 72.976562 165.878906 73.703125 169.992188 77.308594 Z M 169.992188 77.308594 "/>
<path style=" stroke:none;fill-rule:nonzero;fill:rgb(18.823529%,24.313725%,36.470588%);fill-opacity:1;" d="M 146.003906 107.191406 C 146.90625 107.253906 147.433594 108.019531 148.1875 108.71875 C 147.03125 109.082031 146.453125 108.328125 146.003906 107.191406 Z M 146.003906 107.191406 "/>
<path style=" stroke:none;fill-rule:nonzero;fill:rgb(18.823529%,24.313725%,36.470588%);fill-opacity:1;" d="M 148.507812 109.21875 C 149.175781 109.394531 149.867188 109.746094 150.644531 110.246094 C 149.78125 110.53125 149.050781 110.199219 148.507812 109.21875 Z M 148.507812 109.21875 "/>
<path style=" stroke:none;fill-rule:nonzero;fill:rgb(18.823529%,24.313725%,36.470588%);fill-opacity:1;" d="M 143.601562 104.421875 C 144.082031 104.714844 144.523438 105.191406 144.988281 105.832031 C 144.113281 105.964844 143.625 105.511719 143.601562 104.421875 Z M 143.601562 104.421875 "/>
<path style=" stroke:none;fill-rule:nonzero;fill:rgb(18.823529%,24.313725%,36.470588%);fill-opacity:1;" d="M 171.984375 78.820312 C 171.457031 78.648438 170.917969 78.289062 170.304688 77.78125 C 171.121094 77.433594 171.679688 77.800781 171.984375 78.820312 Z M 171.984375 78.820312 "/>
<path style=" stroke:none;fill-rule:nonzero;fill:rgb(18.823529%,24.313725%,36.470588%);fill-opacity:1;" d="M 144.824219 80.515625 C 144.648438 81.039062 144.289062 81.578125 143.777344 82.1875 C 143.429688 81.371094 143.796875 80.8125 144.824219 80.515625 Z M 144.824219 80.515625 "/>
<path style=" stroke:none;fill-rule:nonzero;fill:rgb(18.823529%,24.313725%,36.470588%);fill-opacity:1;" d="M 149.585938 76.597656 C 149.445312 76.902344 149.125 77.171875 148.648438 77.449219 C 148.542969 76.902344 148.820312 76.574219 149.585938 76.597656 Z M 149.585938 76.597656 "/>
<path style=" stroke:none;fill-rule:nonzero;fill:rgb(18.823529%,24.313725%,36.470588%);fill-opacity:1;" d="M 174.929688 82.015625 C 174.621094 81.898438 174.328125 81.605469 174.023438 81.15625 C 174.550781 81.015625 174.894531 81.265625 174.929688 82.015625 Z M 174.929688 82.015625 "/>
<path style=" stroke:none;fill-rule:nonzero;fill:rgb(96.470588%,98.431373%,99.607843%);fill-opacity:1;" d="M 152.890625 39.839844 C 153.421875 40.378906 154.402344 40.375 154.308594 41.191406 C 154.214844 41.984375 153.367188 41.984375 152.765625 42.140625 C 150.648438 42.683594 148.621094 43.613281 146.183594 43.761719 C 145.015625 44.292969 144.039062 44.097656 143.058594 43.894531 C 135.8125 42.378906 128.523438 41.304688 120.878906 41.742188 C 120.269531 41.726562 119.867188 41.71875 119.285156 41.867188 C 118.609375 42.03125 118.109375 42.066406 117.433594 42.136719 C 116.894531 42.1875 116.539062 42.234375 116.03125 42.417969 C 114.5 43.015625 113.035156 43.078125 111.441406 43.425781 C 111.144531 43.492188 111.023438 43.515625 110.722656 43.558594 C 110.171875 43.613281 109.804688 43.621094 109.253906 43.667969 C 108.691406 43.71875 108.332031 43.832031 107.773438 43.972656 C 106.648438 44.160156 105.714844 44.261719 104.671875 43.648438 C 103.089844 43.074219 101.664062 42.640625 100.253906 42.15625 C 99.675781 41.957031 98.726562 42.042969 98.777344 41.160156 C 98.820312 40.441406 99.617188 40.203125 100.253906 40 C 104.363281 38.683594 108.480469 37.390625 112.585938 36.070312 C 115.984375 34.980469 119.371094 33.871094 122.886719 32.636719 C 125.199219 31.929688 127.390625 31.609375 129.792969 32.480469 C 132.488281 32.945312 134.761719 34.082031 137.351562 34.820312 C 138.050781 35.117188 138.597656 35.308594 139.3125 35.507812 C 140.300781 35.527344 141.023438 35.835938 141.871094 36.292969 C 142.960938 36.636719 143.914062 36.886719 145.054688 37.121094 C 146.066406 37.453125 146.871094 37.839844 147.863281 38.230469 C 149.214844 38.699219 150.417969 39.085938 151.808594 39.484375 C 152.28125 39.507812 152.546875 39.585938 152.890625 39.839844 Z M 152.890625 39.839844 "/>
<path style=" stroke:none;fill-rule:nonzero;fill:rgb(38.431373%,76.078431%,96.862745%);fill-opacity:1;" d="M 108.894531 43.285156 C 109.382812 43.140625 109.75 43.058594 110.304688 42.976562 C 110.496094 42.976562 110.644531 43.167969 110.644531 43.167969 C 110.644531 43.167969 110.882812 43.128906 110.945312 43.027344 C 112.53125 42.601562 114.058594 42.285156 115.785156 41.96875 C 116.253906 41.992188 116.519531 41.96875 116.894531 41.8125 C 117.542969 41.664062 118.066406 41.570312 118.796875 41.488281 C 119.230469 41.496094 119.460938 41.464844 119.847656 41.355469 C 125.988281 40.617188 131.914062 40.933594 137.800781 42.132812 C 140.390625 42.664062 142.996094 43.144531 145.789062 43.742188 C 146.113281 45.042969 145.976562 46.144531 144.65625 46.929688 C 144.046875 47.488281 143.460938 47.5 142.6875 47.464844 C 142.132812 47.433594 141.753906 47.414062 141.195312 47.328125 C 140.777344 47.144531 140.535156 47.03125 140.128906 47 C 139.769531 46.984375 139.539062 46.972656 139.148438 46.914062 C 138.59375 46.730469 138.222656 46.535156 137.648438 46.511719 C 136.960938 46.46875 136.425781 46.421875 135.707031 46.308594 C 135.273438 46.128906 135.027344 46.03125 134.621094 46.015625 C 133.957031 45.984375 133.425781 45.949219 132.707031 45.855469 C 131.996094 45.476562 131.417969 45.5 130.671875 45.492188 C 129.320312 45.386719 128.140625 45.28125 126.773438 45.175781 C 124.210938 43.441406 121.765625 45.074219 119.421875 45.226562 C 115.492188 45.476562 111.621094 46.570312 107.703125 47.136719 C 105.394531 47.46875 104.957031 45.589844 104.507812 43.710938 C 105.523438 43.507812 106.539062 43.492188 107.773438 43.480469 C 108.261719 43.496094 108.527344 43.464844 108.894531 43.285156 Z M 108.894531 43.285156 "/>
<path style=" stroke:none;fill-rule:nonzero;fill:rgb(10.980392%,18.431373%,32.941176%);fill-opacity:1;" d="M 139.164062 121.78125 C 138.496094 121.925781 137.960938 121.9375 137.226562 121.941406 C 136.625 121.964844 136.300781 121.820312 136.101562 121.351562 C 136.21875 119.625 136.800781 118.40625 138.453125 117.75 C 150.59375 119.691406 160.417969 125.296875 167.761719 135.039062 C 168.703125 136.289062 169.476562 137.675781 170.238281 139.050781 C 170.8125 140.082031 170.476562 141.042969 169.519531 141.644531 C 168.496094 142.292969 167.972656 141.304688 167.519531 140.71875 C 165.644531 138.300781 164.097656 135.664062 162.125 133.289062 C 158.503906 128.933594 153.824219 126.265625 148.808594 124.046875 C 145.792969 122.714844 142.675781 121.597656 139.164062 121.78125 Z M 139.164062 121.78125 "/>
<path style=" stroke:none;fill-rule:nonzero;fill:rgb(99.607843%,99.607843%,99.607843%);fill-opacity:1;" d="M 156.578125 162.066406 C 155.835938 162.542969 155.160156 162.933594 154.3125 163.351562 C 154.015625 162.78125 154.074219 162.242188 154.558594 161.796875 C 156.976562 159.578125 159.367188 157.332031 161.808594 155.140625 C 162.21875 154.773438 162.792969 154.519531 163.605469 154.75 C 161.960938 157.53125 159.523438 159.617188 156.941406 161.785156 C 156.863281 161.933594 156.640625 161.972656 156.578125 162.066406 Z M 156.578125 162.066406 "/>
<path style=" stroke:none;fill-rule:nonzero;fill:rgb(99.607843%,99.607843%,99.607843%);fill-opacity:1;" d="M 163.242188 136.015625 C 160.171875 136.273438 159.230469 133.265625 157.160156 131.867188 C 156.570312 131.472656 156.414062 130.792969 156.75 129.894531 C 159.421875 131.28125 161.320312 133.5625 163.242188 136.015625 Z M 163.242188 136.015625 "/>
<path style=" stroke:none;fill-rule:nonzero;fill:rgb(99.607843%,99.607843%,99.607843%);fill-opacity:1;" d="M 165.785156 139.726562 C 163.742188 139.789062 163.28125 138.347656 163.230469 136.457031 C 164.476562 137.109375 164.992188 138.417969 165.785156 139.726562 Z M 165.785156 139.726562 "/>
<path style=" stroke:none;fill-rule:nonzero;fill:rgb(99.607843%,99.607843%,99.607843%);fill-opacity:1;" d="M 170.542969 144.496094 C 169.703125 144.402344 169.503906 143.871094 169.511719 142.976562 C 170.03125 142.472656 170.558594 141.636719 171.136719 142.394531 C 171.652344 143.066406 170.953125 143.730469 170.542969 144.496094 Z M 170.542969 144.496094 "/>
<path style=" stroke:none;fill-rule:nonzero;fill:rgb(99.607843%,99.607843%,99.607843%);fill-opacity:1;" d="M 156.671875 129.503906 C 155.546875 130.203125 154.746094 129.992188 154.617188 128.328125 C 155.300781 128.527344 155.953125 128.941406 156.671875 129.503906 Z M 156.671875 129.503906 "/>
<path style=" stroke:none;fill-rule:nonzero;fill:rgb(99.607843%,99.607843%,99.607843%);fill-opacity:1;" d="M 165.8125 152.308594 C 165.457031 151.28125 165.390625 150.242188 167.136719 150.097656 C 167.175781 151.003906 166.519531 151.578125 165.8125 152.308594 Z M 165.8125 152.308594 "/>
<path style=" stroke:none;fill-rule:nonzero;fill:rgb(99.607843%,99.607843%,99.607843%);fill-opacity:1;" d="M 168.078125 149.035156 C 167.550781 148.984375 167.105469 148.828125 167.246094 148.296875 C 167.394531 147.742188 167.882812 147.582031 168.617188 147.582031 C 168.613281 148.050781 168.410156 148.503906 168.078125 149.035156 Z M 168.078125 149.035156 "/>
<path style=" stroke:none;fill-rule:nonzero;fill:rgb(99.607843%,99.607843%,99.607843%);fill-opacity:1;" d="M 163.976562 154.671875 C 163.363281 153.75 163.441406 153.058594 164.964844 153.046875 C 164.824219 153.578125 164.46875 154.089844 163.976562 154.671875 Z M 163.976562 154.671875 "/>
<path style=" stroke:none;fill-rule:nonzero;fill:rgb(99.607843%,99.607843%,99.607843%);fill-opacity:1;" d="M 169.472656 146.535156 C 169.09375 146.476562 168.738281 146.398438 168.792969 145.996094 C 168.847656 145.585938 169.199219 145.621094 169.6875 145.609375 C 169.785156 145.90625 169.691406 146.179688 169.472656 146.535156 Z M 169.472656 146.535156 "/>
<path style=" stroke:none;fill-rule:nonzero;fill:rgb(99.607843%,99.607843%,99.607843%);fill-opacity:1;" d="M 139.507812 122.296875 C 139.425781 122.632812 139.566406 123.117188 139.023438 123.203125 C 138.9375 123.21875 138.722656 122.976562 138.734375 122.957031 C 138.851562 122.765625 139.003906 122.601562 139.320312 122.363281 C 139.488281 122.296875 139.503906 122.308594 139.507812 122.296875 Z M 139.507812 122.296875 "/>
<path style=" stroke:none;fill-rule:nonzero;fill:rgb(3.529412%,12.156863%,30.196078%);fill-opacity:1;" d="M 175.609375 121.636719 C 175.726562 121.585938 175.839844 121.6875 175.945312 121.945312 C 175.828125 121.996094 175.714844 121.890625 175.609375 121.636719 Z M 175.609375 121.636719 "/>
<path style=" stroke:none;fill-rule:nonzero;fill:rgb(96.470588%,98.431373%,99.607843%);fill-opacity:1;" d="M 124.875 115.03125 C 124.605469 113.128906 127.90625 108.738281 129.414062 109.015625 C 131.585938 109.414062 132.660156 111.464844 134.078125 112.921875 C 135.078125 113.953125 133.988281 114.910156 133.453125 115.792969 C 132.554688 117.285156 131.5625 118.71875 130.699219 120.230469 C 129.789062 121.824219 129.101562 121.546875 128.261719 120.167969 C 127.226562 118.46875 126.078125 116.84375 124.875 115.03125 Z M 124.875 115.03125 "/>
<path style=" stroke:none;fill-rule:nonzero;fill:rgb(99.607843%,99.607843%,99.607843%);fill-opacity:1;" d="M 136.027344 121.3125 C 136.425781 121.328125 136.679688 121.480469 136.980469 121.78125 C 135.457031 124.242188 134.484375 127.113281 131.191406 128 C 132.910156 126.023438 133.695312 123.214844 136.027344 121.3125 Z M 136.027344 121.3125 "/>
<path style=" stroke:none;fill-rule:nonzero;fill:rgb(99.607843%,99.607843%,99.607843%);fill-opacity:1;" d="M 122.019531 123.015625 C 122.378906 122.683594 122.753906 122.539062 123.277344 122.339844 C 125.683594 123.726562 126.394531 126.472656 128.449219 128.296875 C 127.558594 129.550781 126.976562 128.328125 126.550781 127.929688 C 124.960938 126.441406 123.527344 124.789062 122.019531 123.015625 Z M 122.019531 123.015625 "/>
<path style=" stroke:none;fill-rule:nonzero;fill:rgb(44.705882%,76.470588%,93.72549%);fill-opacity:1;" d="M 137.464844 34.75 C 134.953125 34.652344 132.65625 33.5 130.121094 32.625 C 130.78125 31.550781 131.488281 32.335938 132.203125 32.601562 C 133.949219 33.246094 135.683594 33.917969 137.464844 34.75 Z M 137.464844 34.75 "/>
<path style=" stroke:none;fill-rule:nonzero;fill:rgb(44.705882%,76.470588%,93.72549%);fill-opacity:1;" d="M 141.972656 36.230469 C 141.242188 36.183594 140.476562 35.976562 139.597656 35.644531 C 140.53125 34.707031 141.207031 35.5 141.972656 36.230469 Z M 141.972656 36.230469 "/>
<path style=" stroke:none;fill-rule:nonzero;fill:rgb(44.705882%,76.470588%,93.72549%);fill-opacity:1;" d="M 147.960938 38.152344 C 147.039062 38.332031 146.160156 38.078125 145.328125 37.261719 C 146.238281 37.074219 147.160156 37.277344 147.960938 38.152344 Z M 147.960938 38.152344 "/>
<path style=" stroke:none;fill-rule:nonzero;fill:rgb(44.705882%,76.470588%,93.72549%);fill-opacity:1;" d="M 153 39.773438 C 152.722656 39.859375 152.445312 39.796875 152.082031 39.609375 C 152.230469 39.335938 152.46875 39.179688 152.851562 39.015625 C 153 39.210938 153 39.414062 153 39.773438 Z M 153 39.773438 "/>
<path style=" stroke:none;fill-rule:nonzero;fill:rgb(44.705882%,76.470588%,93.72549%);fill-opacity:1;" d="M 142.632812 47.582031 C 142.9375 46.878906 143.5625 47.027344 144.320312 47.007812 C 144.5 47.203125 144.5 47.394531 144.5 47.726562 C 143.917969 47.816406 143.335938 47.761719 142.632812 47.582031 Z M 142.632812 47.582031 "/>
<path style=" stroke:none;fill-rule:nonzero;fill:rgb(44.705882%,76.470588%,93.72549%);fill-opacity:1;" d="M 130.628906 45.609375 C 131.140625 44.839844 131.78125 44.757812 132.464844 45.648438 C 131.929688 45.777344 131.34375 45.75 130.628906 45.609375 Z M 130.628906 45.609375 "/>
<path style=" stroke:none;fill-rule:nonzero;fill:rgb(44.705882%,76.470588%,93.72549%);fill-opacity:1;" d="M 137.605469 46.628906 C 138.007812 45.757812 138.417969 46.21875 138.910156 46.746094 C 138.5625 46.824219 138.140625 46.785156 137.605469 46.628906 Z M 137.605469 46.628906 "/>
<path style=" stroke:none;fill-rule:nonzero;fill:rgb(44.705882%,76.470588%,93.72549%);fill-opacity:1;" d="M 134.589844 46.121094 C 134.800781 45.554688 135.117188 45.464844 135.480469 46.121094 C 135.242188 46.238281 134.964844 46.230469 134.589844 46.121094 Z M 134.589844 46.121094 "/>
<path style=" stroke:none;fill-rule:nonzero;fill:rgb(44.705882%,76.470588%,93.72549%);fill-opacity:1;" d="M 140.089844 47.105469 C 140.324219 46.535156 140.644531 46.480469 140.984375 47.136719 C 140.742188 47.246094 140.464844 47.230469 140.089844 47.105469 Z M 140.089844 47.105469 "/>
<path style=" stroke:none;fill-rule:nonzero;fill:rgb(99.607843%,99.607843%,99.607843%);fill-opacity:1;" d="M 96.417969 137.648438 C 98.890625 134.613281 101.214844 131.660156 104.664062 129.636719 C 105.0625 130.386719 104.878906 131.164062 104.3125 131.652344 C 101.351562 134.191406 98.761719 137.09375 96.03125 139.863281 C 95.941406 139.953125 95.714844 139.910156 95.351562 139.902344 C 95.550781 139.1875 95.949219 138.496094 96.417969 137.648438 Z M 96.417969 137.648438 "/>
<path style=" stroke:none;fill-rule:nonzero;fill:rgb(99.607843%,99.607843%,99.607843%);fill-opacity:1;" d="M 110.394531 166.667969 C 108.632812 166.421875 107.152344 165.433594 105.484375 164.488281 C 106.960938 163.285156 109.316406 164.273438 110.394531 166.667969 Z M 110.394531 166.667969 "/>
<path style=" stroke:none;fill-rule:nonzero;fill:rgb(99.607843%,99.607843%,99.607843%);fill-opacity:1;" d="M 152.539062 164.160156 C 151.359375 165.402344 149.867188 166.054688 148.214844 166.753906 C 148.796875 164.703125 150.277344 163.78125 152.539062 164.160156 Z M 152.539062 164.160156 "/>
<path style=" stroke:none;fill-rule:nonzero;fill:rgb(99.607843%,99.607843%,99.607843%);fill-opacity:1;" d="M 135.050781 170.195312 C 134.652344 170.5 134.234375 170.601562 133.65625 170.640625 C 133.566406 170.046875 133.339844 169.351562 134.089844 169.160156 C 134.710938 168.996094 134.917969 169.484375 135.050781 170.195312 Z M 135.050781 170.195312 "/>
<path style=" stroke:none;fill-rule:nonzero;fill:rgb(99.607843%,99.607843%,99.607843%);fill-opacity:1;" d="M 124.496094 170.371094 C 124.066406 170.574219 123.628906 170.578125 123.058594 170.488281 C 123.023438 169.851562 122.960938 169.15625 123.757812 169.136719 C 124.417969 169.121094 124.445312 169.683594 124.496094 170.371094 Z M 124.496094 170.371094 "/>
<path style=" stroke:none;fill-rule:nonzero;fill:rgb(43.137255%,77.254902%,95.686275%);fill-opacity:1;" d="M 87.601562 91.101562 C 90.046875 91.058594 90.132812 92.914062 90.449219 94.375 C 91.0625 97.1875 92.316406 99.480469 94.789062 101.085938 C 98.035156 103.195312 102.664062 103.109375 105.816406 100.792969 C 108.84375 98.570312 110.253906 94.167969 109.105469 90.5 C 107.84375 86.464844 104.632812 84.101562 100.402344 83.894531 C 98.054688 83.78125 95.945312 84.167969 94.113281 85.71875 C 93.675781 86.09375 93.164062 86.40625 92.648438 86.660156 C 91.507812 87.214844 90.375 87.316406 89.507812 86.179688 C 88.640625 85.046875 89.289062 84.011719 90.0625 83.292969 C 93.449219 80.136719 97.425781 78.261719 102.109375 79.226562 C 113.445312 81.566406 117.667969 93.5625 110.433594 102.582031 C 107.714844 105.96875 101.230469 108.679688 95.714844 106.65625 C 90.265625 104.65625 86.175781 99.859375 85.960938 94.574219 C 85.90625 93.199219 85.933594 91.871094 87.601562 91.101562 Z M 87.601562 91.101562 "/>
<path style=" stroke:none;fill-rule:nonzero;fill:rgb(41.960784%,77.254902%,97.647059%);fill-opacity:1;" d="M 104.898438 88.59375 C 106.25 89.933594 107.121094 91.28125 106.675781 93.113281 C 106.453125 94.011719 106.1875 94.898438 105.046875 95.027344 C 104.121094 95.132812 103.433594 94.765625 102.988281 93.960938 C 102.171875 92.480469 101.078125 91.34375 99.511719 90.59375 C 98.519531 90.117188 98.160156 89.121094 98.613281 88.050781 C 99.050781 87.027344 99.957031 86.53125 101.019531 86.699219 C 102.410156 86.921875 103.746094 87.394531 104.898438 88.59375 Z M 104.898438 88.59375 "/>
<path style=" stroke:none;fill-rule:nonzero;fill:rgb(42.745098%,77.254902%,95.686275%);fill-opacity:1;" d="M 157.09375 83.789062 C 156.746094 83.710938 156.546875 83.691406 156.203125 83.699219 C 155.664062 83.917969 155.25 83.996094 154.664062 84.015625 C 153.035156 84.195312 151.90625 85.074219 150.71875 85.832031 C 149.554688 86.570312 148.355469 86.890625 147.398438 85.609375 C 146.382812 84.246094 147.039062 83.121094 148.148438 82.144531 C 151.917969 78.824219 158.574219 78.148438 163.164062 80.625 C 169.265625 83.917969 171.960938 89.921875 170.4375 96.816406 C 169.140625 102.683594 163.6875 107.347656 157.1875 107.386719 C 148.472656 107.433594 142.425781 100.101562 142.914062 93.199219 C 143.007812 91.898438 143.230469 90.453125 144.632812 90.203125 C 146.324219 89.90625 146.792969 91.421875 147.109375 92.753906 C 147.703125 95.230469 147.816406 97.824219 149.933594 99.761719 C 152.929688 102.507812 156.328125 103.304688 160.085938 102.058594 C 163.738281 100.84375 165.597656 97.90625 166.421875 94.3125 C 167.332031 90.355469 163.113281 84.464844 158.691406 83.984375 C 158.078125 83.988281 157.652344 84.003906 157.09375 83.789062 Z M 157.09375 83.789062 "/>
<path style=" stroke:none;fill-rule:nonzero;fill:rgb(41.960784%,77.254902%,97.647059%);fill-opacity:1;" d="M 162.296875 93.359375 C 160.214844 94.066406 154.539062 89.0625 154.992188 87.136719 C 155.265625 85.984375 155.820312 85.347656 157.242188 85.507812 C 161.417969 85.972656 164.230469 90.0625 162.296875 93.359375 Z M 162.296875 93.359375 "/>
<path style=" stroke:none;fill-rule:nonzero;fill:rgb(81.960784%,92.156863%,98.039216%);fill-opacity:1;" d="M 154.597656 84.140625 C 154.800781 83.566406 155.246094 83.53125 155.890625 83.664062 C 155.808594 84.4375 155.359375 84.628906 154.597656 84.140625 Z M 154.597656 84.140625 "/>
<path style=" stroke:none;fill-rule:nonzero;fill:rgb(81.960784%,92.156863%,98.039216%);fill-opacity:1;" d="M 157 83.867188 C 157.386719 83.527344 157.832031 83.496094 158.390625 83.851562 C 158.03125 84.597656 157.546875 84.644531 157 83.867188 Z M 157 83.867188 "/>
<path style=" stroke:none;fill-rule:nonzero;fill:rgb(44.705882%,76.470588%,93.72549%);fill-opacity:1;" d="M 116.878906 41.699219 C 116.871094 42.210938 116.679688 42.566406 116.058594 42.085938 C 116.238281 41.863281 116.492188 41.753906 116.878906 41.699219 Z M 116.878906 41.699219 "/>
<path style=" stroke:none;fill-rule:nonzero;fill:rgb(44.705882%,76.470588%,93.72549%);fill-opacity:1;" d="M 108.878906 43.175781 C 108.882812 43.679688 108.714844 44.066406 108.0625 43.597656 C 108.242188 43.367188 108.492188 43.246094 108.878906 43.175781 Z M 108.878906 43.175781 "/>
<path style=" stroke:none;fill-rule:nonzero;fill:rgb(44.705882%,76.470588%,93.72549%);fill-opacity:1;" d="M 119.882812 41.230469 C 119.867188 41.738281 119.671875 42.085938 119.066406 41.605469 C 119.25 41.386719 119.5 41.273438 119.882812 41.230469 Z M 119.882812 41.230469 "/>
<path style=" stroke:none;fill-rule:nonzero;fill:rgb(44.705882%,76.470588%,93.72549%);fill-opacity:1;" d="M 110.875 42.914062 C 110.929688 43.109375 110.878906 43.335938 110.542969 43.066406 C 110.578125 42.957031 110.660156 42.933594 110.875 42.914062 Z M 110.875 42.914062 "/>
</g>
</svg>
